<svg id="Layer_1" data-name="Layer 1" xmlns="http://www.w3.org/2000/svg" xmlns:xlink="http://www.w3.org/1999/xlink" viewBox="0 0 1920 1080"><defs><style>.cls-1{fill:url(#linear-gradient);}.cls-2{stroke:#000;stroke-miterlimit:10;}.cls-3{fill:#1a1a1a;}</style><linearGradient id="linear-gradient" x1="961.36" y1="1342.51" x2="959.08" y2="-1.7" gradientUnits="userSpaceOnUse"><stop offset="0.19" stop-color="#e37c6a"/><stop offset="0.37" stop-color="#ac5898"/><stop offset="0.61" stop-color="#522562"/><stop offset="0.79" stop-color="#2c1241"/><stop offset="1" stop-color="#0b071a"/></linearGradient></defs><rect class="cls-1" x="0.5" y="0.5" width="1919" height="1079"/><path d="M1919,1V1079H1V1H1919m1-1H0V1080H1920V0Z"/><path class="cls-2" d="M342.5,1080.5c52-78.33,103.3-106.71,141-118,28.81-8.63,46.24-6.26,72-24,41.93-28.87,34.13-61.56,78-96,27.64-21.7,57.43-29.69,81-36,27.13-7.27,30.81-3.89,81-12,45.31-7.32,44.93-10.5,90-18,43.6-7.25,67.25-11,100-9,27,1.68,51.68,3.47,78,18,23.55,13,20,20.51,48,39,26.09,17.24,50.06,24.52,78,33,11.54,3.51,28.85,7.38,63,15,36.14,8.06,42.94,9.23,69,15,86.58,19.16,97.87,25.3,108,33,7.58,5.77,29,22.51,39,51,6.13,17.57,3.35,26.62,6,39,4.2,19.63,21.64,45.76,84,70"/><path d="M0,1237.23H121.41V385c-5.5,53.09-14,115.49-27.37,183-16.46,83.08-35.7,150.5-52.9,202.15Q58.75,741.34,76.41,712l11-18.38C84,721.47,77.82,759.14,66.12,799.25,50.73,852,32.4,886.43,19.84,906.45c9.08-1,23.69-5.22,38.94-23a129.32,129.32,0,0,0,15.42-23,716.7,716.7,0,0,1-19.83,90.35c-15.24,52.24-33.07,87.92-46.29,110.26q16.74-11,33.8-23,9.49-6.64,18.82-13.37c-3,28.75-8.91,70.78-21.76,116C25.89,1186.63,10.8,1218,0,1237.23Z"/><path d="M243,1238H121.59V385.77c5.5,53.09,14,115.49,27.37,183,16.46,83.08,35.7,150.5,52.9,202.15q-17.61-28.83-35.27-58.2-5.52-9.18-11-18.37C159,722.23,165.18,759.9,176.88,800c15.39,52.79,33.72,87.19,46.28,107.2-9.08-1-23.69-5.21-38.94-23a129,129,0,0,1-15.42-23,716.7,716.7,0,0,0,19.83,90.35c15.24,52.24,33.07,87.93,46.29,110.27q-16.74-11.06-33.8-23-9.5-6.64-18.82-13.38c2.95,28.75,8.91,70.78,21.76,116C217.11,1187.39,232.2,1218.77,243,1238Z"/><path class="cls-3" d="M197.74,1392.68H319.15V540.44c-5.5,53.1-14,115.5-27.37,183-16.46,83.07-35.7,150.5-52.9,202.15q17.61-28.83,35.27-58.2,5.52-9.18,11-18.38c-3.42,27.89-9.61,65.56-21.31,105.67-15.39,52.79-33.72,87.19-46.28,107.2,9.08-1,23.69-5.21,38.93-23a128.5,128.5,0,0,0,15.43-23,716.7,716.7,0,0,1-19.83,90.35c-15.24,52.24-33.07,87.92-46.29,110.27q16.74-11.05,33.8-23,9.49-6.63,18.82-13.37c-2.95,28.75-8.91,70.78-21.76,116C223.63,1342.07,208.54,1373.44,197.74,1392.68Z"/><path class="cls-3" d="M440.74,1393.44H319.33V541.21c5.5,53.09,14,115.49,27.37,183,16.46,83.08,35.7,150.5,52.9,202.15Q382,897.55,364.33,868.17l-11-18.38c3.42,27.89,9.61,65.56,21.31,105.67,15.39,52.78,33.72,87.18,46.28,107.2-9.08-1-23.7-5.22-38.94-23a129,129,0,0,1-15.42-23,716.43,716.43,0,0,0,19.83,90.36c15.24,52.24,33.07,87.92,46.29,110.26q-16.74-11-33.8-23-9.5-6.64-18.83-13.37c3,28.74,8.92,70.78,21.77,116C414.85,1342.84,429.94,1374.21,440.74,1393.44Z"/><path d="M1603,1192.29h148.43V245A2046,2046,0,0,1,1718,448.42c-20.13,92.34-43.65,167.28-64.67,224.69q21.53-32,43.11-64.68,6.75-10.21,13.47-20.43c-4.18,31-11.74,72.87-26,117.45-18.82,58.68-41.23,96.91-56.59,119.16,11.11-1.06,29-5.79,47.61-25.53a143.55,143.55,0,0,0,18.86-25.54A737.51,737.51,0,0,1,1669.47,874C1650.84,932,1629,971.7,1612.88,996.54q20.46-12.28,41.32-25.54,11.6-7.38,23-14.86c-3.6,32-10.89,78.67-26.61,128.91C1634.65,1136,1616.2,1170.92,1603,1192.29Z"/><path d="M1900.08,1193.15H1751.65V245.85a2045.57,2045.57,0,0,0,33.46,203.42c20.13,92.34,43.64,167.28,64.67,224.69q-21.52-32-43.11-64.68-6.76-10.21-13.48-20.43c4.19,31,11.75,72.87,26,117.46,18.82,58.67,41.23,96.91,56.59,119.15-11.11-1.06-29-5.79-47.61-25.53a143.85,143.85,0,0,1-18.86-25.53,736.27,736.27,0,0,0,24.25,100.43c18.63,58.06,40.43,97.72,56.59,122.56q-20.46-12.28-41.32-25.54-11.61-7.38-23-14.86c3.61,32,10.9,78.67,26.61,128.91C1868.42,1136.89,1886.88,1171.77,1900.08,1193.15Z"/></svg>