<svg id="button.social" xmlns="http://www.w3.org/2000/svg" width="118.5" height="38" viewBox="0 0 118.5 38">
  <rect id="Rectangle_94" data-name="Rectangle 94" width="118" height="38" rx="4" fill="#3a5998"/>
  <text id="Facebook" transform="translate(41.5 23)" fill="#fff" font-size="14" font-family="Lato-Bold, Lato" font-weight="700"><tspan x="0" y="0">Facebook</tspan></text>
  <path id="facebook-square" d="M12.388,33.327v9.734a1.328,1.328,0,0,1-1.327,1.327H8.7v-4.9h1.676l.241-1.869H8.7V36.424c0-.542.149-.91.926-.91h.99v-1.67a13.311,13.311,0,0,0-1.443-.075,2.254,2.254,0,0,0-2.406,2.472v1.38H5.088v1.869H6.772v4.9H1.327A1.328,1.328,0,0,1,0,43.061V33.327A1.328,1.328,0,0,1,1.327,32h9.734A1.328,1.328,0,0,1,12.388,33.327Z" transform="translate(20 -20.839)" fill="rgba(255,255,255,0.6)"/>
</svg>
