<svg id="button.social" xmlns="http://www.w3.org/2000/svg" width="122.988" height="37" viewBox="0 0 122.988 37">
  <rect id="Rectangle_94" data-name="Rectangle 94" width="122.988" height="37" rx="4" transform="translate(0)" fill="#78729e"/>
  <text id="Instagram" transform="translate(40.988 22)" fill="#fff" font-size="14" font-family="Play-Regular, Play"><tspan x="0" y="0">Instagram</tspan></text>
  <path id="instagram-2" data-name="instagram" d="M6.044,34.805a3.136,3.136,0,1,0,3.136,3.136A3.131,3.131,0,0,0,6.044,34.805Zm0,5.175a2.039,2.039,0,1,1,2.039-2.039A2.043,2.043,0,0,1,6.044,39.98Zm4-5.3a.732.732,0,1,1-.732-.732A.73.73,0,0,1,10.04,34.677Zm2.077.742a3.62,3.62,0,0,0-.988-2.563,3.644,3.644,0,0,0-2.563-.988c-1.01-.057-4.037-.057-5.047,0a3.639,3.639,0,0,0-2.563.985,3.632,3.632,0,0,0-.988,2.563c-.057,1.01-.057,4.037,0,5.047a3.62,3.62,0,0,0,.988,2.563,3.649,3.649,0,0,0,2.563.988c1.01.057,4.037.057,5.047,0a3.62,3.62,0,0,0,2.563-.988,3.644,3.644,0,0,0,.988-2.563C12.175,39.454,12.175,36.429,12.118,35.419Zm-1.3,6.128A2.064,2.064,0,0,1,9.65,42.71a13.482,13.482,0,0,1-3.606.246,13.587,13.587,0,0,1-3.606-.246,2.064,2.064,0,0,1-1.163-1.163,13.482,13.482,0,0,1-.246-3.606,13.587,13.587,0,0,1,.246-3.606,2.064,2.064,0,0,1,1.163-1.163,13.482,13.482,0,0,1,3.606-.246,13.587,13.587,0,0,1,3.606.246,2.064,2.064,0,0,1,1.163,1.163,13.482,13.482,0,0,1,.246,3.606A13.474,13.474,0,0,1,10.813,41.547Z" transform="translate(20.075 -20.825)" fill="rgba(255,255,255,0.6)"/>
</svg>
