<svg id="Layer_1" data-name="Layer 1" xmlns="http://www.w3.org/2000/svg" viewBox="0 0 56.5 13.01"><defs><style>.cls-1{fill:#fff;}.cls-2{fill:none;stroke:#fff;stroke-miterlimit:10;}</style></defs><path class="cls-1" d="M5.67,10.49a2.56,2.56,0,0,1-1.6-.44A1.9,1.9,0,0,1,3.41,8.7a.43.43,0,0,1,.1-.35.49.49,0,0,1,.33-.11.47.47,0,0,1,.33.1.67.67,0,0,1,.13.33,1,1,0,0,0,.38.73,1.93,1.93,0,0,0,1,.2H7.4a1.56,1.56,0,0,0,1.1-.3,1.57,1.57,0,0,0,.29-1.08,1.56,1.56,0,0,0-.3-1.1A1.54,1.54,0,0,0,7.4,6.81H5.86a2.2,2.2,0,0,1-1.64-.53,2.22,2.22,0,0,1-.53-1.64A2.23,2.23,0,0,1,4.21,3a2.24,2.24,0,0,1,1.64-.53H7.36a2.41,2.41,0,0,1,1.5.41,1.83,1.83,0,0,1,.63,1.27.41.41,0,0,1-.09.34.45.45,0,0,1-.34.12.44.44,0,0,1-.32-.11.52.52,0,0,1-.13-.32.89.89,0,0,0-.36-.65,1.72,1.72,0,0,0-.89-.18H5.85a1.4,1.4,0,0,0-1,.28,1.41,1.41,0,0,0-.27,1,1.44,1.44,0,0,0,.27,1,1.4,1.4,0,0,0,1,.28H7.4a2.36,2.36,0,0,1,1.72.56,2.37,2.37,0,0,1,.56,1.73,2.31,2.31,0,0,1-.56,1.71,2.36,2.36,0,0,1-1.72.56Z"/><path class="cls-1" d="M14.22,10.49a2.75,2.75,0,0,1-2-.64,2.75,2.75,0,0,1-.63-2V5.11a2.76,2.76,0,0,1,.63-2,2.74,2.74,0,0,1,2-.63h1.45a2.67,2.67,0,0,1,1.7.47A2,2,0,0,1,18,4.41a.37.37,0,0,1-.09.34.43.43,0,0,1-.33.12.44.44,0,0,1-.47-.44,1,1,0,0,0-.39-.84,2,2,0,0,0-1.08-.23H14.21a2.85,2.85,0,0,0-1,.16,1,1,0,0,0-.54.54,2.76,2.76,0,0,0-.16,1.05V7.86a2.67,2.67,0,0,0,.16,1,1,1,0,0,0,.54.54,2.7,2.7,0,0,0,1,.16h1.44a2,2,0,0,0,1.08-.22,1,1,0,0,0,.39-.84.44.44,0,0,1,.47-.44.47.47,0,0,1,.33.11.39.39,0,0,1,.09.34A2,2,0,0,1,17.36,10a2.67,2.67,0,0,1-1.7.47Z"/><path class="cls-1" d="M20.52,10.49a.48.48,0,0,1-.45-.45V2.93a.45.45,0,0,1,.14-.32.44.44,0,0,1,.31-.13.46.46,0,0,1,.31.13.48.48,0,0,1,.13.32V6H25.9V2.93A.44.44,0,0,1,26,2.61a.42.42,0,0,1,.31-.13.46.46,0,0,1,.31.13.44.44,0,0,1,.13.32V10a.4.4,0,0,1-.13.31.43.43,0,0,1-.31.14.4.4,0,0,1-.31-.14A.4.4,0,0,1,25.9,10V6.87H21V10a.44.44,0,0,1-.13.31A.43.43,0,0,1,20.52,10.49Z"/><path class="cls-1" d="M29.64,10.49a.39.39,0,0,1-.45-.45V2.93a.45.45,0,0,1,.11-.33.45.45,0,0,1,.34-.11A.41.41,0,0,1,30,2.6a.45.45,0,0,1,.11.33V10a.5.5,0,0,1-.11.34A.45.45,0,0,1,29.64,10.49Z"/><path class="cls-1" d="M34.87,10.49a2.75,2.75,0,0,1-2-.64,2.71,2.71,0,0,1-.64-2V5.1a2.72,2.72,0,0,1,.64-2,2.69,2.69,0,0,1,2-.62h1.45a2.71,2.71,0,0,1,2,.64,2.73,2.73,0,0,1,.63,2V7.86a2.75,2.75,0,0,1-.63,2,2.75,2.75,0,0,1-2,.64Zm-2.07.34a.38.38,0,0,1-.14-.58l4.9-8a.38.38,0,0,1,.58-.14.37.37,0,0,1,.13.58l-4.89,8A.38.38,0,0,1,32.8,10.83ZM34.87,9.6h1.44a2.61,2.61,0,0,0,1-.16,1,1,0,0,0,.55-.54,2.67,2.67,0,0,0,.16-1V5.11a2.61,2.61,0,0,0-.16-1,1,1,0,0,0-.55-.55,2.59,2.59,0,0,0-1-.17H34.86a2.65,2.65,0,0,0-1,.16,1,1,0,0,0-.54.54,2.65,2.65,0,0,0-.17,1V7.86a2.65,2.65,0,0,0,.17,1,1,1,0,0,0,.54.54A2.67,2.67,0,0,0,34.87,9.6Z"/><path class="cls-1" d="M43,10.49a.45.45,0,0,1-.33-.11.45.45,0,0,1-.12-.33V3.37h-2.4a.49.49,0,0,1-.33-.11.45.45,0,0,1-.11-.33.49.49,0,0,1,.11-.33.49.49,0,0,1,.33-.11h5.69a.49.49,0,0,1,.33.11.49.49,0,0,1,.11.33.45.45,0,0,1-.11.33.49.49,0,0,1-.33.11H43.44v6.68a.43.43,0,0,1-.11.32A.42.42,0,0,1,43,10.49Z"/><path class="cls-1" d="M50.19,10.49a.45.45,0,0,1-.33-.11.45.45,0,0,1-.12-.33V3.37h-2.4A.49.49,0,0,1,47,3.26a.45.45,0,0,1-.11-.33A.49.49,0,0,1,47,2.6a.49.49,0,0,1,.33-.11H53a.47.47,0,0,1,.33.11.49.49,0,0,1,.11.33.45.45,0,0,1-.11.33.47.47,0,0,1-.33.11h-2.4v6.68a.44.44,0,0,1-.12.32A.41.41,0,0,1,50.19,10.49Z"/><rect class="cls-2" x="0.5" y="0.5" width="55.5" height="12"/></svg>
